{"title":"Edge of Tomorrow 2014 HDTS XVID AC3 ACAB","uid":10522062,"size":1583148854,"categoryP":"video","categoryS":"movies","magnet":"?xt=urn:btih:44ea28fc99b27b2710d29c32e762d7d53055366f&amp;dn=Edge+of+Tomorrow+2014+HDTS+XVID+AC3+ACAB&amp;tr=udp%3A%2F%2Ftracker.openbittorrent.com%3A80&amp;tr=udp%3A%2F%2Fopen.demonii.com%3A1337&amp;tr=udp%3A%2F%2Ftracker.coppersurfer.tk%3A6969&amp;tr=udp%3A%2F%2Fexodus.desync.com%3A6969","seeders":4,"leechers":2,"uploader":"xxxlavalxxx","files":-1,"time":1404953771,"description":"[IMG]http://i.imgur.com/HwXRmBy.jpg[/IMG]\n\n\n &lt;a href=&quot;\nhttp://www.imdb.com/title/tt1631867/&quot; rel=&quot;nofollow&quot; target=&quot;_NEW&quot;&gt;\nhttp://www.imdb.com/title/tt1631867/&lt;/a&gt;\n\n\nAn alien race has hit the Earth in an unrelenting assault, unbeatable by any military unit in the world. Major William Cage (Cruise) is an officer who has never seen a day of combat when he is unceremoniously dropped into what amounts to a suicide mission. Killed within minutes, Cage now finds himself inexplicably thrown into a time loop-forcing him to live out the same brutal combat over and over, fighting and dying again...and again. But with each battle, Cage becomes able to engage the adversaries with increasing skill, alongside Special Forces warrior Rita Vrataski (Blunt). And, as Cage and Vrataski take the fight to the aliens, each repeated encounter gets them one step closer to defeating the enemy.\n\nDirector: Doug Liman\nWriters: Christopher McQuarrie (screenplay), Jez Butterworth (screenplay)\nStars: Tom Cruise, Emily Blunt, Bill Paxton \nGenres: Action | Sci-Fi\nCountry: USA | Australia\nLanguage: English\n\n\n\nFormat                                   : AVI\nFormat/Info                              : Audio Video Interleave\nFile size                                : 1.46 GiB\nDuration                                 : 1h 47mn\nOverall bit rate                         : 1 933 Kbps\nWriting library                          : VirtualDub build 30091/release\n\nVideo\nID                                       : 0\nFormat                                   : MPEG-4 Visual\nFormat profile                           : Advanced Simple@L5\nFormat settings, BVOP                    : 2\nFormat settings, QPel                    : No\nFormat settings, GMC                     : No warppoints\nFormat settings, Matrix                  : Default (H.263)\nMuxing mode                              : Packed bitstream\nCodec ID                                 : XVID\nCodec ID/Hint                            : XviD\nDuration                                 : 1h 47mn\nBit rate                                 : 1 795 Kbps\nWidth                                    : 720 pixels\nHeight                                   : 304 pixels\nDisplay aspect ratio                     : 2.35:1\nFrame rate                               : 25.000 fps\nColor space                              : YUV\nChroma subsampling                       : 4:2:0\nBit depth                                : 8 bits\nScan type                                : Progressive\nCompression mode                         : Lossy\nBits/(Pixel*Frame)                       : 0.328\nStream size                              : 1.35 GiB (93%)\nWriting library                          : XviD 65\n\nAudio\nID                                       : 1\nFormat                                   : AC-3\nFormat/Info                              : Audio Coding 3\nMode extension                           : CM (complete main)\nFormat settings, Endianness              : Big\nCodec ID                                 : 2000\nDuration                                 : 1h 47mn\nBit rate mode                            : Constant\nBit rate                                 : 128 Kbps\nChannel(s)                               : 2 channels\nChannel positions                        : Front: L R\nSampling rate                            : 48.0 KHz\nBit depth                                : 16 bits\nCompression mode                         : Lossy\nStream size                              : 98.8 MiB (7%)\n\n\n\nscreens\n &lt;a href=&quot;\nhttp://i.imgur.com/ZvLMA7S.png&quot; rel=&quot;nofollow&quot; target=&quot;_NEW&quot;&gt;\nhttp://i.imgur.com/ZvLMA7S.png&lt;/a&gt; &lt;a href=&quot;\nhttp://i.imgur.com/5kZnKAt.png&quot; rel=&quot;nofollow&quot; target=&quot;_NEW&quot;&gt;\nhttp://i.imgur.com/5kZnKAt.png&lt;/a&gt; &lt;a href=&quot;\nhttp://i.imgur.com/WMTfUSA.png&quot; rel=&quot;nofollow&quot; target=&quot;_NEW&quot;&gt;\nhttp://i.imgur.com/WMTfUSA.png&lt;/a&gt;","torrent":{"xt":"urn:btih:44ea28fc99b27b2710d29c32e762d7d53055366f","amp;dn":"Edge+of+Tomorrow+2014+HDTS+XVID+AC3+ACAB","amp;tr":["udp%3A%2F%2Ftracker.openbittorrent.com%3A80","udp%3A%2F%2Fopen.demonii.com%3A1337","udp%3A%2F%2Ftracker.coppersurfer.tk%3A6969","udp%3A%2F%2Fexodus.desync.com%3A6969"],"infoHash":"44ea28fc99b27b2710d29c32e762d7d53055366f","infoHashBuffer":{"type":"Buffer","data":[68,234,40,252,153,178,123,39,16,210,156,50,231,98,215,213,48,85,54,111]},"announce":[],"urlList":[]}}